<svg xmlns="http://www.w3.org/2000/svg" viewBox="0 0 48 48" width="48" height="48" role="img" aria-label="Roost">
  <rect width="48" height="48" rx="14" fill="#6f2738"/>
  <g fill="#ffffff">
    <path d="M 13.2 15.2 L 4.0 19.8 C 3.3 20.1 3.3 20.7 4.0 21.0 L 13.6 25.4 Z"/>
    <path fill-rule="evenodd" d="M 11.9 16.4 C 14.4 10.6 20.2 7.2 25.4 8.6 C 31.2 10.2 35.2 15.4 35.6 21.4 C 38.6 19.4 42.6 15.2 45.1 11.3 C 46 9.9 47.6 11 46.7 12.5 C 43.7 18.6 39.8 23.6 35.6 27.1 C 34.5 33.2 29 38.2 22.2 38.6 C 14.9 39 8.7 33.7 8.4 26.5 C 8.2 22.4 9.6 19 11.9 16.4 Z M 16.6 13.8 a 2 2 0 1 0 0.1 4 a 2 2 0 0 0 -0.1 -4 Z"/>
  </g>
  <path fill="#6f2738" d="M 15.8 22.8 C 22.2 21.6 28.6 25.2 32.8 31 C 26.8 26.8 21.2 24.8 15.8 22.8 Z"/>
</svg>
